<svg width="39" height="39" viewBox="0 0 39 39" fill="none" xmlns="http://www.w3.org/2000/svg">
    <path d="M12.188 19.4992V9.74921C12.188 7.80981 12.9584 5.94985 14.3298 4.57849C15.7011 3.20713 17.5611 2.43671 19.5005 2.43671C21.4399 2.43671 23.2998 3.20713 24.6712 4.57849C26.0426 5.94985 26.813 7.80981 26.813 9.74921V19.4992C26.813 21.4386 26.0426 23.2986 24.6712 24.6699C23.2998 26.0413 21.4399 26.8117 19.5005 26.8117C17.5611 26.8117 15.7011 26.0413 14.3298 24.6699C12.9584 23.2986 12.188 21.4386 12.188 19.4992ZM31.688 19.4992C31.688 19.176 31.5596 18.866 31.331 18.6374C31.1025 18.4089 30.7925 18.2805 30.4692 18.2805C30.146 18.2805 29.836 18.4089 29.6075 18.6374C29.3789 18.866 29.2505 19.176 29.2505 19.4992C29.2505 22.0851 28.2233 24.565 26.3948 26.3935C24.5663 28.222 22.0863 29.2492 19.5005 29.2492C16.9146 29.2492 14.4347 28.222 12.6062 26.3935C10.7777 24.565 9.75049 22.0851 9.75049 19.4992C9.75049 19.176 9.62208 18.866 9.39352 18.6374C9.16496 18.4089 8.85497 18.2805 8.53174 18.2805C8.20851 18.2805 7.89851 18.4089 7.66995 18.6374C7.44139 18.866 7.31299 19.176 7.31299 19.4992C7.3167 22.5195 8.44021 25.4311 10.4663 27.671C12.4923 29.9109 15.277 31.32 18.2817 31.6258V36.5617C18.2817 36.8849 18.4101 37.1949 18.6387 37.4235C18.8673 37.6521 19.1773 37.7805 19.5005 37.7805C19.8237 37.7805 20.1337 37.6521 20.3623 37.4235C20.5908 37.1949 20.7192 36.8849 20.7192 36.5617V31.6258C23.724 31.32 26.5087 29.9109 28.5347 27.671C30.5608 25.4311 31.6843 22.5195 31.688 19.4992Z" fill="url(#paint0_linear_225_3615)"/>
    <defs>
    <linearGradient id="paint0_linear_225_3615" x1="36.0005" y1="1.99921" x2="5.50049" y2="37.9992" gradientUnits="userSpaceOnUse">
    <stop offset="0.340338" stop-color="#226AA9"/>
    <stop offset="0.849454" stop-color="#A528AB"/>
    </linearGradient>
    </defs>
    </svg>
    