<svg width="60" height="106" viewBox="0 0 60 106" fill="none" xmlns="http://www.w3.org/2000/svg">
<g clip-path="url(#clip0_529_7783)">
<path d="M59.0591 79.4375L54.8584 70.8922C54.8584 70.8922 54.1582 63.7421 51.3577 60.4288L48.7322 55.5457L44.5315 51.3603C44.5315 51.3603 40.1558 43.687 37.1804 43.3381C34.2049 42.9892 13.3758 51.8835 13.3758 51.8835C13.3758 51.8835 6.54959 52.7552 6.89974 55.5457C7.2499 58.3361 8.73753 58.8627 8.73753 58.8627L11.9756 59.731L13.0258 59.5566L22.3025 59.731L13.9012 62.3469L11.1007 63.2188C11.1007 63.2188 8.12514 64.4976 8.73783 66.9973C9.35053 69.497 11.1007 69.497 11.1007 69.497L14.6014 69.3225L18.2769 68.7994L24.0528 71.5897L19.502 74.5546L19.852 76.2985C19.852 76.2985 18.8019 78.2169 19.852 79.7864L20.9022 82.0535C20.9022 82.0535 22.6525 83.2743 24.0527 81.5304C24.0527 81.5304 24.9278 81.1816 24.9278 80.484C24.9361 80.0141 24.9948 79.5463 25.1029 79.0888C25.4366 78.9574 25.7945 78.898 26.153 78.9144H27.0281L29.3035 79.0888C29.3035 79.0888 29.1284 79.9607 30.3537 80.1351C30.3537 80.1351 30.7037 82.2278 31.754 82.2278C31.754 82.2278 32.0911 83.5133 32.9726 84.0917C32.9726 84.0917 37.705 90.0755 41.3807 91.4708C41.3807 91.4708 45.7565 94.4355 47.1566 94.4355L59.0588 79.4375H59.0591Z" fill="#ED9DA0"/>
<path opacity="0.1" d="M36.2949 72.3845C36.2949 72.3845 31.9292 79.7863 31.7542 82.2279L36.2949 72.3845Z" fill="#090814"/>
<path opacity="0.1" d="M38.8479 72.3845C38.8479 72.3845 36.6551 79.6119 37.5302 83.4485L38.8479 72.3845Z" fill="#090814"/>
<path d="M41.2515 76.2495L16.2011 79.8652C14.6315 80.0899 13.0364 79.6851 11.7659 78.7395C10.4954 77.794 9.65326 76.385 9.42413 74.8215L0.0622051 10.4302C-0.163507 8.86618 0.242688 7.27681 1.19167 6.01082C2.14065 4.74482 3.55491 3.9056 5.12415 3.67727L30.1745 0.0621597C31.7442 -0.162597 33.3392 0.242203 34.6097 1.18775C35.8802 2.1333 36.7224 3.54237 36.9515 5.10583L46.313 69.4971C46.5386 71.0611 46.1323 72.6504 45.1833 73.9162C44.2343 75.1821 42.8201 76.0212 41.2509 76.2495H41.2515Z" fill="#090814"/>
<path d="M40.973 74.6647L15.8716 78.2877C14.6937 78.4565 13.4967 78.1529 12.5432 77.4434C11.5898 76.7339 10.9577 75.6765 10.7858 74.5032L1.40663 9.98862C1.2372 8.815 1.54196 7.62235 2.25405 6.67236C2.96614 5.72236 4.02739 5.09263 5.20493 4.92133L30.3063 1.29904C31.4842 1.13023 32.6812 1.43388 33.6347 2.14338C34.5881 2.85288 35.2202 3.91026 35.3921 5.08351L44.7719 69.598C44.9413 70.7716 44.6365 71.9643 43.9244 72.9142C43.2124 73.8642 42.1511 74.494 40.9736 74.6653L40.973 74.6647Z" fill="white"/>
<path d="M22.3596 6.73025L14.3717 7.88317C13.9287 7.9471 13.4784 7.83308 13.1198 7.56619C12.7612 7.29931 12.5237 6.90143 12.4596 6.46007C12.3954 6.01872 12.5099 5.57004 12.7777 5.21276C13.0456 4.85547 13.4449 4.61883 13.8879 4.55491L21.876 3.40214C22.319 3.33821 22.7693 3.45223 23.1279 3.71912C23.4865 3.986 23.724 4.38388 23.7882 4.82524C23.8523 5.26659 23.7379 5.71527 23.47 6.07255C23.2022 6.42984 22.8028 6.66648 22.3599 6.7304L22.3596 6.73025Z" fill="#090814"/>
<path d="M59.9998 78.7182C59.9998 78.7182 58.4463 75.1651 51.6201 84.7571C44.7939 94.349 42.1686 98.1854 43.9188 99.5806C45.669 100.976 50.7783 106.001 50.7783 106.001H59.9998V78.7182Z" fill="#045B8F"/>
<path d="M46.6318 86.7621C46.6318 86.7621 40.6807 84.3206 40.1556 69.3228C40.1556 69.3228 38.7552 67.5788 38.0552 67.5788C37.3552 67.5788 37.1802 66.8812 37.1802 66.8812C37.1802 66.8812 35.4298 67.9275 34.3797 67.4044C34.3797 67.4044 28.7787 67.7531 27.5536 64.7885C26.3285 61.8239 30.7041 61.1263 30.7041 61.1263L31.9293 60.9519L36.3051 58.1616C36.3051 58.1616 38.2305 57.464 39.6306 59.0335L45.0565 61.9982L49.6074 64.0909L51.8828 66.358" fill="#ED9DA0"/>
<path opacity="0.1" d="M49.9573 60.0798C49.9573 60.0798 47.1481 61.0552 45.9272 62.3987L49.9573 60.0798Z" fill="#090814"/>
<path d="M10.9905 21.4009L8.0819 21.859C8.0106 21.8714 7.93752 21.8696 7.86692 21.8536C7.79631 21.8376 7.7296 21.8077 7.67066 21.7657C7.61172 21.7237 7.56173 21.6704 7.52362 21.609C7.48551 21.5476 7.46002 21.4792 7.44866 21.4078C7.4373 21.3365 7.44028 21.2636 7.45743 21.1935C7.47458 21.1234 7.50556 21.0573 7.54857 20.9993C7.59157 20.9413 7.64573 20.8923 7.7079 20.8554C7.77007 20.8185 7.839 20.7943 7.91067 20.7842L10.8193 20.3261C10.8906 20.3137 10.9636 20.3155 11.0342 20.3315C11.1048 20.3475 11.1716 20.3774 11.2305 20.4194C11.2894 20.4614 11.3394 20.5147 11.3775 20.5761C11.4156 20.6376 11.4411 20.7059 11.4525 20.7773C11.4639 20.8486 11.4609 20.9215 11.4437 20.9916C11.4266 21.0617 11.3956 21.1278 11.3526 21.1858C11.3096 21.2439 11.2554 21.2928 11.1932 21.3297C11.1311 21.3666 11.0622 21.3908 10.9905 21.4009Z" fill="#E6E6E6"/>
<path d="M30.053 18.3368C30.3206 18.2947 30.5031 18.0442 30.4605 17.7772C30.418 17.5103 30.1665 17.3281 29.8989 17.3702C29.6313 17.4124 29.4488 17.6629 29.4913 17.9298C29.5339 18.1967 29.7853 18.379 30.053 18.3368Z" fill="#E6E6E6"/>
<path d="M31.5615 18.0988C31.8291 18.0567 32.0116 17.8061 31.9691 17.5392C31.9265 17.2723 31.6751 17.0901 31.4074 17.1322C31.1398 17.1743 30.9573 17.4249 30.9999 17.6918C31.0424 17.9587 31.2939 18.1409 31.5615 18.0988Z" fill="#E6E6E6"/>
<path d="M33.0698 17.8608C33.3374 17.8186 33.5199 17.5681 33.4774 17.3012C33.4348 17.0343 33.1834 16.852 32.9157 16.8942C32.6481 16.9363 32.4656 17.1868 32.5082 17.4538C32.5507 17.7207 32.8022 17.9029 33.0698 17.8608Z" fill="#E6E6E6"/>
<path d="M16.3141 35.0878L11.1448 35.9016C10.7878 35.9574 10.4231 35.8697 10.1307 35.6577C9.8382 35.4458 9.64185 35.1269 9.5847 34.771L8.76304 29.6157C8.70674 29.2597 8.79432 28.8961 9.00656 28.6047C9.2188 28.3133 9.53838 28.1179 9.89519 28.0613L15.064 27.2476C15.421 27.1918 15.7857 27.2795 16.0781 27.4915C16.3706 27.7034 16.567 28.0223 16.6241 28.3781L17.4457 33.5331C17.502 33.889 17.4144 34.2526 17.2022 34.544C16.9899 34.8354 16.6704 35.0309 16.3135 35.0875L16.3141 35.0878Z" fill="#F2F2F2"/>
<path d="M34.523 32.2143L29.3538 33.0281C28.9968 33.0838 28.6321 32.9961 28.3396 32.7842C28.0472 32.5722 27.8508 32.2534 27.7937 31.8975L26.972 26.7422C26.9157 26.3862 27.0033 26.0226 27.2155 25.7312C27.4278 25.4398 27.7474 25.2444 28.1042 25.1877L33.273 24.374C33.63 24.3183 33.9947 24.406 34.2871 24.6179C34.5796 24.8299 34.7759 25.1488 34.8331 25.5046L35.6547 30.6595C35.711 31.0155 35.6234 31.3791 35.4112 31.6705C35.1989 31.9619 34.8793 32.1573 34.5225 32.2139L34.523 32.2143Z" fill="#F2F2F2"/>
<path d="M25.3646 33.6596L20.1953 34.4734C19.8384 34.5291 19.4737 34.4414 19.1812 34.2295C18.8887 34.0175 18.6924 33.6987 18.6352 33.3428L17.8136 28.1875C17.7573 27.8315 17.8449 27.4679 18.0571 27.1765C18.2693 26.8851 18.5889 26.6897 18.9457 26.6331L24.1146 25.8193C24.4715 25.7636 24.8362 25.8513 25.1287 26.0633C25.4212 26.2752 25.6175 26.5941 25.6747 26.9499L26.4962 32.1048C26.5525 32.4608 26.465 32.8244 26.2527 33.1158C26.0405 33.4072 25.7209 33.6026 25.3641 33.6592L25.3646 33.6596Z" fill="#F2F2F2"/>
<path d="M11.7043 39.4405C11.376 39.4926 11.0819 39.6724 10.8867 39.9405C10.6914 40.2086 10.6108 40.5431 10.6627 40.8706L11.4843 46.0255C11.5368 46.3529 11.7175 46.6463 11.9866 46.8413C12.2556 47.0363 12.5912 47.117 12.9196 47.0657L18.0884 46.252C18.4167 46.1999 18.7107 46.0201 18.906 45.752C19.1012 45.4839 19.1818 45.1494 19.13 44.8219L18.3084 39.667C18.2559 39.3396 18.0753 39.0463 17.8063 38.8513C17.5373 38.6563 17.2019 38.5755 16.8736 38.6268L11.7043 39.4405Z" fill="#F2F2F2"/>
<path d="M36.315 43.4863L31.1458 44.3001C30.7888 44.3558 30.4241 44.2681 30.1316 44.0561C29.8392 43.8442 29.6428 43.5253 29.5857 43.1695L28.764 38.0141C28.7077 37.6581 28.7953 37.2946 29.0075 37.0032C29.2198 36.7118 29.5394 36.5163 29.8962 36.4597L35.065 35.646C35.422 35.5903 35.7867 35.678 36.0791 35.8899C36.3716 36.1019 36.5679 36.4207 36.6251 36.7766L37.4467 41.9315C37.5031 42.2875 37.4156 42.6511 37.2035 42.9425C36.9913 43.234 36.6718 43.4295 36.315 43.4863Z" fill="#F2F2F2"/>
<path d="M27.1566 44.9316L21.9873 45.7454C21.6304 45.8011 21.2657 45.7134 20.9732 45.5015C20.6807 45.2895 20.4844 44.9706 20.4272 44.6148L19.6056 39.4594C19.5493 39.1034 19.6369 38.7399 19.8491 38.4485C20.0613 38.1571 20.3809 37.9616 20.7377 37.905L25.9066 37.0913C26.2635 37.0356 26.6282 37.1233 26.9207 37.3352C27.2131 37.5472 27.4095 37.866 27.4666 38.2219L28.2882 43.3768C28.3446 43.7328 28.2572 44.0964 28.045 44.3878C27.8329 44.6793 27.5134 44.8749 27.1566 44.9316Z" fill="#F2F2F2"/>
<path d="M19.8978 57.6318L14.7285 58.4456C14.3716 58.5013 14.0069 58.4136 13.7144 58.2017C13.4219 57.9897 13.2256 57.6708 13.1684 57.315L12.3468 52.1596C12.2905 51.8036 12.3781 51.4401 12.5903 51.1487C12.8025 50.8573 13.1221 50.6618 13.4789 50.6052L18.6478 49.7915C19.0047 49.7358 19.3694 49.8235 19.6619 50.0354C19.9544 50.2474 20.1507 50.5662 20.2079 50.9221L21.0294 56.077C21.0857 56.433 20.9982 56.7966 20.7859 57.088C20.5737 57.3794 20.2541 57.5748 19.8973 57.6314L19.8978 57.6318Z" fill="#F2F2F2"/>
<path d="M38.1068 54.7582L32.9375 55.572C32.5806 55.6278 32.2159 55.5401 31.9234 55.3281C31.6309 55.1162 31.4346 54.7973 31.3774 54.4414L30.5558 49.2861C30.4995 48.9301 30.587 48.5665 30.7993 48.2751C31.0115 47.9837 31.3311 47.7883 31.6879 47.7317L36.8568 46.918C37.2137 46.8622 37.5784 46.9499 37.8709 47.1619C38.1633 47.3738 38.3597 47.6927 38.4168 48.0486L39.2384 53.2035C39.2947 53.5595 39.2071 53.923 38.9949 54.2144C38.7827 54.5058 38.4631 54.7013 38.1063 54.7579L38.1068 54.7582Z" fill="#F2F2F2"/>
<path d="M28.9483 56.2036L23.7791 57.0173C23.4221 57.0731 23.0574 56.9854 22.7649 56.7734C22.4725 56.5615 22.2761 56.2426 22.219 55.8868L21.3973 50.7314C21.341 50.3754 21.4286 50.0119 21.6408 49.7205C21.8531 49.4291 22.1727 49.2336 22.5295 49.177L27.6983 48.3633C28.0553 48.3075 28.42 48.3953 28.7124 48.6072C29.0049 48.8192 29.2012 49.138 29.2584 49.4939L30.08 54.6488C30.1363 55.0048 30.0487 55.3683 29.8365 55.6597C29.6242 55.9511 29.3046 56.1466 28.9478 56.2032L28.9483 56.2036Z" fill="#F2F2F2"/>
<path d="M37.3801 41.9584L10.8071 46.1361C10.2892 46.217 9.75989 46.0895 9.33541 45.7816C8.91092 45.4737 8.62588 45.0105 8.54284 44.4938L6.86585 33.9875C6.7839 33.4706 6.91075 32.9427 7.21856 32.5196C7.52638 32.0966 7.99001 31.813 8.50774 31.731L35.0808 27.5532C35.5987 27.4724 36.128 27.5999 36.5525 27.9078C36.9769 28.2157 37.262 28.6789 37.345 29.1956L39.022 39.7019C39.104 40.2188 38.9771 40.7467 38.6693 41.1698C38.3615 41.5928 37.8979 41.8764 37.3801 41.9584Z" fill="white"/>
<path d="M37.3801 41.9584L10.8071 46.1361C10.2892 46.217 9.75989 46.0895 9.33541 45.7816C8.91092 45.4737 8.62588 45.0105 8.54284 44.4938L6.86585 33.9875C6.7839 33.4706 6.91075 32.9427 7.21856 32.5196C7.52638 32.0966 7.99001 31.813 8.50774 31.731L35.0808 27.5532C35.5987 27.4724 36.128 27.5999 36.5525 27.9078C36.9769 28.2157 37.262 28.6789 37.345 29.1956L39.022 39.7019C39.104 40.2188 38.9771 40.7467 38.6693 41.1698C38.3615 41.5928 37.8979 41.8764 37.3801 41.9584ZM13.6777 31.1386C11.8549 31.4251 10.2222 32.4227 9.13873 33.9118C8.05522 35.4009 7.60966 37.2596 7.90006 39.0789L8.75894 44.4598C8.83231 44.9197 9.08567 45.332 9.46332 45.6061C9.84097 45.8801 10.312 45.9935 10.7727 45.9212L37.3458 41.7434C37.574 41.7075 37.7928 41.6271 37.9897 41.5068C38.1866 41.3865 38.3578 41.2286 38.4934 41.0422C38.629 40.8558 38.7265 40.6444 38.7802 40.4203C38.8339 40.1961 38.8429 39.9635 38.8065 39.7357L37.1295 29.2295C37.0932 29.0017 37.0123 28.7833 36.8914 28.5866C36.7705 28.3898 36.612 28.2188 36.4249 28.0831C36.2378 27.9474 36.0259 27.8497 35.8012 27.7957C35.5764 27.7417 35.3433 27.7323 35.1151 27.7682L13.6777 31.1386Z" fill="#090814"/>
<path d="M20.801 35.0173L11.0982 36.431C11.07 36.4353 11.0413 36.4283 11.0183 36.4114C10.9953 36.3946 10.98 36.3693 10.9756 36.3411C10.9712 36.313 10.9782 36.2842 10.995 36.2612C11.0118 36.2383 11.037 36.2229 11.0651 36.2186L20.768 34.8049C20.7819 34.8027 20.7961 34.8034 20.8098 34.8067C20.8235 34.8101 20.8364 34.8161 20.8478 34.8244C20.8591 34.8328 20.8688 34.8432 20.8761 34.8553C20.8834 34.8674 20.8883 34.8807 20.8905 34.8947C20.8926 34.9086 20.892 34.9228 20.8887 34.9365C20.8854 34.9502 20.8794 34.9631 20.8711 34.9745C20.8628 34.9859 20.8523 34.9955 20.8403 35.0028C20.8283 35.0101 20.8149 35.0151 20.801 35.0173Z" fill="#CCCCCC"/>
<path d="M26.0301 35.9529L11.371 38.1484C11.3429 38.1528 11.3142 38.1457 11.2912 38.1289C11.2683 38.112 11.2529 38.0868 11.2485 38.0586C11.2441 38.0305 11.2511 38.0017 11.2679 37.9788C11.2847 37.9558 11.3099 37.9404 11.338 37.9361L25.9971 35.7404C26.011 35.7383 26.0252 35.7389 26.0389 35.7423C26.0526 35.7456 26.0655 35.7516 26.0768 35.76C26.0882 35.7683 26.0978 35.7788 26.1052 35.7909C26.1125 35.8029 26.1174 35.8163 26.1196 35.8302C26.1217 35.8442 26.1211 35.8584 26.1178 35.8721C26.1145 35.8858 26.1085 35.8987 26.1002 35.9101C26.0919 35.9215 26.0814 35.9311 26.0694 35.9384C26.0573 35.9457 26.044 35.9507 26.0301 35.9529Z" fill="#CCCCCC"/>
<path d="M32.1609 36.3551C33.4095 36.1588 34.2605 34.9896 34.0615 33.7436C33.8626 32.4976 32.6891 31.6466 31.4405 31.8429C30.1919 32.0391 29.341 33.2083 29.5399 34.4544C29.7388 35.7004 30.9123 36.5514 32.1609 36.3551Z" fill="#045B8F"/>
<path d="M32.685 34.521L31.587 32.7607L31.091 34.7716L31.7337 34.3709L31.9159 35.5122L32.1311 35.4784L31.9489 34.3371L32.685 34.521Z" fill="white"/>
<path d="M34.7538 38.0897L12.128 41.6577C12.0566 41.669 11.9926 41.7082 11.9501 41.7668C11.9076 41.8253 11.8902 41.8984 11.9016 41.9699C11.9129 42.0415 11.9522 42.1056 12.0108 42.1482C12.0694 42.1909 12.1424 42.2085 12.2138 42.1972L34.8399 38.6292C34.9114 38.6179 34.9754 38.5787 35.0178 38.5202C35.0603 38.4616 35.0778 38.3885 35.0664 38.317C35.055 38.2454 35.0157 38.1813 34.9572 38.1387C34.8986 38.096 34.8256 38.0784 34.7541 38.0897L34.7538 38.0897Z" fill="#F2F2F2"/>
<path d="M25.0568 39.62L25.1427 40.1593L12.2138 42.1972C12.1424 42.2085 12.0694 42.1909 12.0108 42.1483C11.9522 42.1057 11.9129 42.0416 11.9016 41.9701C11.8902 41.8986 11.9076 41.8255 11.9501 41.767C11.9926 41.7084 12.0566 41.6692 12.128 41.658L25.0568 39.62Z" fill="#045B8F"/>
</g>
<defs>
<clipPath id="clip0_529_7783">
<rect width="60" height="106" fill="white"/>
</clipPath>
</defs>
</svg>
