<svg width="144" height="144" viewBox="0 0 144 144" fill="none" xmlns="http://www.w3.org/2000/svg">
<g clip-path="url(#clip0_449_4395)">
<path d="M97.6838 55.3162C98.1022 55.7342 98.4341 56.2305 98.6605 56.7768C98.887 57.3231 99.0036 57.9086 99.0036 58.5C99.0036 59.0914 98.887 59.6769 98.6605 60.2232C98.4341 60.7695 98.1022 61.2658 97.6838 61.6838L66.1838 93.1838C65.7659 93.6021 65.2695 93.9341 64.7233 94.1605C64.177 94.387 63.5914 94.5035 63 94.5035C62.4087 94.5035 61.8231 94.387 61.2768 94.1605C60.7305 93.9341 60.2342 93.6021 59.8163 93.1838L46.3163 79.6838C45.4719 78.8394 44.9975 77.6941 44.9975 76.5C44.9975 75.3059 45.4719 74.1606 46.3163 73.3162C47.1607 72.4719 48.3059 71.9975 49.5 71.9975C50.6942 71.9975 51.8394 72.4719 52.6838 73.3162L63 83.6381L91.3163 55.3162C91.7342 54.8979 92.2305 54.5659 92.7768 54.3395C93.3231 54.113 93.9087 53.9965 94.5 53.9965C95.0914 53.9965 95.677 54.113 96.2233 54.3395C96.7695 54.5659 97.2658 54.8979 97.6838 55.3162ZM130.5 72C130.5 83.5702 127.069 94.8806 120.641 104.501C114.213 114.121 105.076 121.619 94.387 126.047C83.6975 130.475 71.9351 131.633 60.5872 129.376C49.2394 127.119 38.8157 121.547 30.6343 113.366C22.4529 105.184 16.8813 94.7607 14.6241 83.4128C12.3669 72.0649 13.5253 60.3025 17.9531 49.613C22.3808 38.9235 29.8789 29.7871 39.4992 23.359C49.1194 16.931 60.4298 13.5 72 13.5C87.5102 13.5164 102.38 19.685 113.348 30.6523C124.315 41.6197 130.484 56.4899 130.5 72ZM121.5 72C121.5 62.2098 118.597 52.6395 113.158 44.4993C107.719 36.359 99.9878 30.0145 90.9429 26.268C81.8979 22.5214 71.9451 21.5412 62.3431 23.4511C52.741 25.3611 43.9209 30.0755 36.9982 36.9982C30.0755 43.9209 25.3611 52.741 23.4512 62.343C21.5412 71.9451 22.5215 81.8979 26.268 90.9428C30.0145 99.9878 36.3591 107.719 44.4993 113.158C52.6395 118.597 62.2099 121.5 72 121.5C85.1237 121.485 97.7055 116.265 106.985 106.985C116.265 97.7055 121.485 85.1236 121.5 72Z" fill="#107048"/>
</g>
<defs>
<clipPath id="clip0_449_4395">
<rect width="144" height="144" fill="white"/>
</clipPath>
</defs>
</svg>
